<svg width="46" height="55" viewBox="0 0 46 55" fill="none" xmlns="http://www.w3.org/2000/svg">
<rect x="44.7395" y="20.6785" width="12.6053" height="7.56321" rx="3.7816" transform="rotate(90 44.7395 20.6785)" stroke="#FF9B05" stroke-width="2.52107"/>
<rect x="40.384" y="39.1858" width="7.56321" height="7.56321" rx="3.7816" transform="rotate(90 40.384 39.1858)" stroke="#FF9B05" stroke-width="2.52107"/>
<rect x="40.384" y="6.52665" width="7.56321" height="7.56321" rx="3.7816" transform="rotate(90 40.384 6.52665)" stroke="#FF9B05" stroke-width="2.52107"/>
<path d="M22.0503 17.5269V17.5269C26.9235 17.5269 30.874 21.4774 30.874 26.3506V27.6111C30.874 32.4843 26.9235 36.4349 22.0503 36.4349V36.4349" stroke="#FF9B05" stroke-width="3.7816"/>
<path d="M22.0509 2H23.6839C25.7882 2 27.4941 3.70591 27.4941 5.81025V5.81025C27.4941 7.91459 25.7882 9.6205 23.6839 9.6205H22.0509" stroke="#FF9B05" stroke-width="2.52565"/>
<path d="M22.0509 45.5454H23.6839C25.7882 45.5454 27.4941 47.2513 27.4941 49.3557V49.3557C27.4941 51.46 25.7882 53.1659 23.6839 53.1659H22.0509" stroke="#FF9B05" stroke-width="2.52565"/>
<rect x="0.880401" y="32.2934" width="8.80401" height="5.2824" rx="2.6412" transform="rotate(-90 0.880401 32.2934)" stroke="#FF9B05" stroke-width="1.7608"/>
<rect x="3.92142" y="19.3681" width="5.2824" height="5.2824" rx="2.6412" transform="rotate(-90 3.92142 19.3681)" stroke="#FF9B05" stroke-width="1.7608"/>
<rect x="3.92142" y="42.1782" width="5.2824" height="5.2824" rx="2.6412" transform="rotate(-90 3.92142 42.1782)" stroke="#FF9B05" stroke-width="1.7608"/>
<path d="M16.7273 33.5532V33.5532C13.3236 33.5532 10.5645 30.794 10.5645 27.3904V26.51C10.5645 23.1064 13.3236 20.3472 16.7273 20.3472V20.3472" stroke="#FF9B05" stroke-width="2.6412"/>
<path d="M16.7275 45.3403H15.587C14.1172 45.3403 12.9258 44.1489 12.9258 42.6791V42.6791C12.9258 41.2094 14.1172 40.0179 15.587 40.0179H16.7275" stroke="#FF9B05" stroke-width="1.764"/>
<path d="M16.7275 14.9258H15.587C14.1172 14.9258 12.9258 13.7343 12.9258 12.2646V12.2646C12.9258 10.7948 14.1172 9.60336 15.587 9.60336H16.7275" stroke="#FF9B05" stroke-width="1.764"/>
</svg>
