<svg width="22" height="35" viewBox="0 0 22 35" fill="none" xmlns="http://www.w3.org/2000/svg">
<path d="M7.45884 3.11434C7.07171 2.7257 6.53462 2.48628 5.93588 2.48628C5.33864 2.48628 4.80568 2.7257 4.42344 3.11434H4.41367C4.02766 3.50034 3.78824 4.03894 3.78824 4.63392C3.78824 5.23228 4.02766 5.7675 4.41367 6.14974L4.42344 6.16026C4.80568 6.54552 5.33864 6.78155 5.93588 6.78155C6.53462 6.78155 7.07171 6.54552 7.45884 6.16026L7.46335 6.14974C7.85086 5.7675 8.08727 5.23228 8.08727 4.63392C8.08727 4.03894 7.85086 3.50034 7.46335 3.11434H7.45884ZM5.93588 32.5137C6.53462 32.5137 7.07171 32.2698 7.45884 31.8883L7.46335 31.877C7.85086 31.4963 8.08727 30.9577 8.08727 30.3657C8.08727 29.7673 7.85086 29.2314 7.46335 28.8435H7.45884C7.07171 28.4511 6.53462 28.2139 5.93588 28.2139C5.33864 28.2139 4.80568 28.4511 4.42344 28.8435H4.41367C4.02766 29.2314 3.78824 29.7673 3.78824 30.3657C3.78824 30.9577 4.02766 31.4963 4.41367 31.877L4.42344 31.8883C4.80568 32.2698 5.33864 32.5137 5.93588 32.5137ZM17.6374 26.0065C18.1692 25.8667 18.6507 25.5254 18.945 25.009L18.9844 24.9335C19.246 24.4445 19.2938 23.8792 19.1539 23.3774C19.013 22.8418 18.668 22.3668 18.1527 22.071L18.1222 22.0507C17.6201 21.7748 17.0488 21.7147 16.5233 21.8579C15.9892 21.9913 15.5093 22.3468 15.2169 22.8588C14.9207 23.3677 14.8591 23.9525 15.0008 24.4907C15.147 25.0203 15.4894 25.4988 16.0017 25.7979H16.0047C16.5181 26.093 17.0984 26.146 17.6374 26.0065ZM8.13876 15.2992C7.57498 14.7369 6.79696 14.3843 5.93588 14.3843C5.07592 14.3843 4.30016 14.7369 3.7375 15.2992C3.17673 15.8607 2.83094 16.6353 2.83094 17.4964C2.83094 18.3575 3.17673 19.1355 3.7375 19.7034C4.30016 20.2623 5.07592 20.6115 5.93588 20.6115C6.79696 20.6115 7.57498 20.2623 8.13876 19.7034C8.70104 19.1355 9.04683 18.3575 9.04683 17.4964C9.04683 16.6353 8.70104 15.8607 8.13876 15.2992ZM6.89995 11.6387C8.15004 11.8447 9.27234 12.4434 10.1304 13.3075H10.1368C10.2732 13.4436 10.4059 13.5936 10.5296 13.7431L12.6738 12.5028C12.3856 11.6316 12.372 10.7209 12.6039 9.86657C12.9095 8.72285 13.6511 7.69902 14.7628 7.05743L14.7989 7.0345C15.8987 6.41246 17.1484 6.28279 18.2763 6.58836C19.4189 6.89469 20.4495 7.63963 21.0911 8.74953V8.75291C21.7297 9.8568 21.859 11.1234 21.5545 12.2638C21.2505 13.4071 20.5063 14.4381 19.3956 15.0759L19.1028 15.2488H19.0731C18.0459 15.7378 16.9165 15.8145 15.8791 15.5412C15.0274 15.3157 14.2464 14.8399 13.6345 14.1652L11.4933 15.4022C11.7395 16.0531 11.8755 16.7549 11.8755 17.4964C11.8755 18.2342 11.7395 18.9461 11.4933 19.6005L13.6345 20.834C14.2464 20.1488 15.0274 19.6839 15.8791 19.4576C17.0221 19.1453 18.2887 19.278 19.3956 19.9233L19.4667 19.9564V19.9598C20.536 20.6081 21.2539 21.6087 21.5545 22.7389C21.859 23.8724 21.7297 25.1398 21.0911 26.246L21.0524 26.323L21.0479 26.3166C20.4067 27.3829 19.3956 28.1053 18.2797 28.4109C17.1352 28.7127 15.8682 28.5838 14.7628 27.9478V27.9392C13.6511 27.2965 12.9095 26.2704 12.6039 25.1289C12.372 24.2784 12.3856 23.3677 12.6738 22.4968L10.5296 21.2595C10.4059 21.4091 10.2732 21.5523 10.1368 21.6883L10.1304 21.6951C9.27234 22.5562 8.15004 23.1546 6.89995 23.3538V25.8314C7.79072 26.0174 8.58829 26.4628 9.21296 27.0879L9.21634 27.0943C10.0537 27.9279 10.5724 29.0893 10.5724 30.3657C10.5724 31.6384 10.0537 32.793 9.21634 33.6308L9.21296 33.6439C8.36954 34.4813 7.21266 35 5.93588 35C4.66586 35 3.50598 34.4813 2.66444 33.6439H2.66105V33.6308C1.8229 32.793 1.30309 31.6384 1.30309 30.3657C1.30309 29.0893 1.8229 27.9279 2.66105 27.0943V27.0879H2.66444C3.28873 26.4628 4.0878 26.0174 4.97519 25.8314V23.3538C3.72548 23.1546 2.60505 22.5562 1.74848 21.6951L1.73946 21.6883C0.669774 20.6149 0 19.1355 0 17.4964C0 15.8607 0.669774 14.3813 1.73946 13.3075H1.74848C2.60505 12.4434 3.72548 11.8447 4.97519 11.6387V9.17162C4.0878 8.97918 3.28873 8.53379 2.66444 7.91213H2.66105V7.90536C1.8229 7.0642 1.30309 5.9107 1.30309 4.63392C1.30309 3.3639 1.8229 2.20026 2.66105 1.36247L2.66444 1.35909C3.50598 0.518304 4.66586 0 5.93588 0C7.21266 0 8.36954 0.518304 9.21296 1.35909V1.36247H9.21634C10.0537 2.20026 10.5724 3.3639 10.5724 4.63392C10.5724 5.9107 10.0537 7.0642 9.21634 7.90536L9.21296 7.91213C8.58829 8.53379 7.79072 8.97918 6.89995 9.17162V11.6387ZM18.945 9.99323L18.9266 9.96617C18.6311 9.46779 18.1591 9.13553 17.6374 8.99233C17.0984 8.84913 16.5181 8.90927 16.0017 9.20544H16.0047C15.4894 9.49786 15.1447 9.97595 15.0008 10.5119C14.8591 11.0437 14.9207 11.6316 15.2169 12.1439L15.227 12.157C15.5236 12.6626 15.996 13.0016 16.5233 13.138C17.0533 13.288 17.6438 13.2245 18.1527 12.9283L18.1801 12.9151C18.6811 12.616 19.0149 12.1439 19.1539 11.6252C19.296 11.09 19.2393 10.5051 18.945 9.99323Z" fill="#FFF9F1"/>
</svg>
