<svg width="31" height="23" viewBox="0 0 31 23" fill="none" xmlns="http://www.w3.org/2000/svg">
<path d="M23.0402 17.3178H26.845V8.18202L22.5583 3.89524L19.8677 6.58577L23.0402 9.75818V17.3178ZM26.8551 19.2252H21.3134H13.5832L10.4107 16.0528L11.756 14.7076L14.3763 17.3278H19.7674L14.4566 12.007L15.8119 10.6517L21.1227 15.9625V10.5714L18.5124 7.96115L19.8477 6.62593L13.2519 0H6.7464H0L3.79485 3.79485V3.80489H3.81493H11.6656L14.4465 6.58577L10.3806 10.6517L7.59974 7.8708V5.71235H3.79485V9.44697L10.3806 16.0327L7.70013 18.7132L11.9869 23H18.4924H30.6499L26.8551 19.2252Z" fill="#FFF9F1"/>
</svg>
