<svg width="12" height="9" viewBox="0 0 12 9" fill="none" xmlns="http://www.w3.org/2000/svg">
<path d="M11 1V3H1V1H11ZM12 0H0V4H12V0ZM1.5 2.5L1.9315 1.5H2.569L2.1375 2.5H1.5ZM2.533 2.5L2.965 1.5H3.6025L3.171 2.5H2.533ZM3.5665 2.5L3.998 1.5H4.6355L4.2035 2.5H3.5665ZM4.5995 2.5L5.031 1.5H5.668L5.2365 2.5H4.5995ZM6.27 2.5H5.633L6.0645 1.5H6.702L6.27 2.5ZM10 2.5C9.724 2.5 9.5 2.276 9.5 2C9.5 1.724 9.724 1.5 10 1.5C10.2765 1.5 10.5 1.724 10.5 2C10.5 2.276 10.2765 2.5 10 2.5ZM11 6V8H1V6H11ZM12 5H0V9H12V5ZM1.5 7.5L1.9315 6.5H2.569L2.1375 7.5H1.5ZM2.533 7.5L2.9645 6.5H3.602L3.1705 7.5H2.533ZM3.5665 7.5L3.998 6.5H4.6355L4.2035 7.5H3.5665ZM4.5995 7.5L5.031 6.5H5.668L5.2365 7.5H4.5995ZM6.27 7.5H5.633L6.0645 6.5H6.702L6.27 7.5ZM10 7.5C9.724 7.5 9.5 7.276 9.5 7C9.5 6.724 9.724 6.5 10 6.5C10.2765 6.5 10.5 6.724 10.5 7C10.5 7.276 10.2765 7.5 10 7.5Z" fill="#4EBDB0"/>
</svg>
