<svg width="374" height="233" viewBox="0 0 374 233" fill="none" xmlns="http://www.w3.org/2000/svg">
<g clip-path="url(#clip0_775_3)">
<path d="M97.5361 142C136.748 142 168.536 110.212 168.536 71C168.536 31.7878 136.748 0 97.5361 0C58.3239 0 26.5361 31.7878 26.5361 71C26.5361 110.212 58.3239 142 97.5361 142Z" fill="white"/>
<path d="M0 17.0474C0 42.88 16.206 63.7834 36.2336 63.7834Z" fill="#FFAA2A"/>
<path d="M36.2324 63.7836C36.2324 37.6608 54.3174 16.5225 76.667 16.5225Z" fill="#FF9B05"/>
<path d="M13.1289 19.3887C13.1289 43.9269 23.4632 63.783 36.2344 63.783Z" fill="#FF9B05"/>
<path d="M36.2324 63.7833C36.2324 30.4041 57.1359 3.39404 82.9685 3.39404Z" fill="#FFBF60"/>
<path d="M28.6104 64.113C28.6104 64.113 33.7489 63.9548 35.2975 62.852C36.8461 61.7493 43.2018 60.4325 43.586 62.2011C43.9702 63.9697 51.3082 70.9972 45.5069 71.044C39.7055 71.0908 32.0271 70.1403 30.4815 69.1988C28.9358 68.2573 28.6104 64.113 28.6104 64.113Z" fill="#A8A8A8"/>
<path opacity="0.2" d="M45.6104 70.4284C39.809 70.4752 32.1306 69.5248 30.585 68.5833C29.4079 67.8663 28.9388 65.2934 28.7819 64.1064C28.6732 64.1111 28.6104 64.1131 28.6104 64.1131C28.6104 64.1131 28.9358 68.2574 30.4815 69.1989C32.0271 70.1404 39.7055 71.0908 45.5069 71.044C47.1815 71.0305 47.7599 70.4347 47.7282 69.5523C47.4955 70.0855 46.8568 70.4184 45.6104 70.4284Z" fill="black"/>
<path opacity="0.1" d="M66.2034 148.62C95.1063 148.62 118.537 145.432 118.537 141.5C118.537 137.568 95.1063 134.381 66.2034 134.381C37.3005 134.381 13.8701 137.568 13.8701 141.5C13.8701 145.432 37.3005 148.62 66.2034 148.62Z" fill="#DD8700"/>
<path d="M278.87 233C330.969 233 373.204 227.254 373.204 220.167C373.204 213.079 330.969 207.333 278.87 207.333C226.772 207.333 184.537 213.079 184.537 220.167C184.537 227.254 226.772 233 278.87 233Z" fill="#FFEFD6"/>
<path d="M103.537 222.876C134.833 222.876 160.203 219.424 160.203 215.167C160.203 210.909 134.833 207.458 103.537 207.458C72.2406 207.458 46.8701 210.909 46.8701 215.167C46.8701 219.424 72.2406 222.876 103.537 222.876Z" fill="#FEEACC"/>
<path d="M154.203 208.667C184.203 216.334 241.87 198.667 248.203 178.667" stroke="#FF9900" stroke-width="0.666667" stroke-miterlimit="10"/>
<path d="M103.203 86.3333C103.203 86.3333 146.536 74.3333 149.203 113C151.87 151.667 113.536 162.667 143.536 170.333" stroke="#FF9900" stroke-width="0.666667" stroke-miterlimit="10"/>
<path d="M61.3369 179.094C61.3369 179.094 74.361 175.488 75.1625 187.109C75.964 198.731 64.4427 202.037 73.4593 204.341" stroke="#FF9900" stroke-width="0.666667" stroke-miterlimit="10"/>
<path d="M259.568 187.746L256.942 204.511C256.942 204.511 244.015 211.379 253.104 211.581C262.194 211.783 305.015 211.581 305.015 211.581C305.015 211.581 313.297 211.581 300.168 204.309L297.542 186.736L259.568 187.746Z" fill="#FFDEAD"/>
<path opacity="0.1" d="M251.277 211.399C253.341 209.562 256.943 207.648 256.943 207.648L259.569 190.883L297.543 190.919L300.169 207.446C303.23 209.142 305.127 210.442 306.237 211.439C307.923 211.054 309.766 209.625 300.169 204.309L297.543 186.736L259.569 187.746L256.943 204.511C256.943 204.511 246.08 210.283 251.277 211.399Z" fill="black"/>
<path d="M357.88 70.896H198.826C195.504 70.896 192.811 73.5891 192.811 76.9112V184.054C192.811 187.376 195.504 190.069 198.826 190.069H357.88C361.202 190.069 363.895 187.376 363.895 184.054V76.9112C363.895 73.5891 361.202 70.896 357.88 70.896Z" fill="#FFBF60"/>
<path d="M358.138 77.2588H198.567V166.538H358.138V77.2588Z" fill="#FFEFD6"/>
<path d="M278.353 75.4408C278.91 75.4408 279.363 74.9886 279.363 74.4308C279.363 73.8731 278.91 73.4209 278.353 73.4209C277.795 73.4209 277.343 73.8731 277.343 74.4308C277.343 74.9886 277.795 75.4408 278.353 75.4408Z" fill="#F2F2F2"/>
<path d="M363.895 173.608V184.055C363.895 184.845 363.739 185.627 363.437 186.357C363.135 187.087 362.692 187.75 362.133 188.308C361.575 188.867 360.912 189.31 360.182 189.612C359.452 189.915 358.67 190.07 357.88 190.07H198.826C198.036 190.07 197.254 189.915 196.524 189.612C195.794 189.31 195.131 188.867 194.572 188.308C194.014 187.75 193.57 187.087 193.268 186.357C192.966 185.627 192.81 184.845 192.811 184.055V173.608H363.895Z" fill="#FFBF60"/>
<path d="M322.993 222.488V224.508H214.323V222.892L214.473 222.488L217.151 215.217H320.771L322.993 222.488Z" fill="#FFBF60"/>
<path d="M364.813 220.511C364.615 221.357 363.868 222.25 362.179 223.095C356.119 226.124 343.798 222.287 343.798 222.287C343.798 222.287 334.305 220.671 334.305 216.429C334.571 216.246 334.849 216.081 335.137 215.934C337.685 214.586 346.132 211.26 361.109 216.075C362.213 216.421 363.198 217.067 363.956 217.941C364.563 218.651 365.039 219.552 364.813 220.511Z" fill="#FFBF60"/>
<path d="M355.512 218.853C356.962 218.853 358.137 218.491 358.137 218.045C358.137 217.599 356.962 217.237 355.512 217.237C354.061 217.237 352.886 217.599 352.886 218.045C352.886 218.491 354.061 218.853 355.512 218.853Z" fill="#F2F2F2"/>
<path d="M278.353 185.726C280.473 185.726 282.191 184.008 282.191 181.889C282.191 179.769 280.473 178.051 278.353 178.051C276.234 178.051 274.516 179.769 274.516 181.889C274.516 184.008 276.234 185.726 278.353 185.726Z" fill="#F2F2F2"/>
<path opacity="0.1" d="M322.993 222.489V224.509H214.323V222.893L214.473 222.489H322.993Z" fill="black"/>
<path d="M105.536 53H36.2031V133.667H105.536V53Z" fill="#FFBF60"/>
<path d="M112.537 45H29.2041V73.6667H112.537V45Z" fill="#FFE5BE"/>
<path d="M112.537 79.0005H29.2041V107.667H112.537V79.0005Z" fill="#FFE5BE"/>
<path d="M112.537 113H29.2041V141.667H112.537V113Z" fill="#FFE5BE"/>
<path opacity="0.4" d="M95.8704 50.0005H90.5371V55.3338H95.8704V50.0005Z" fill="#FF9B05"/>
<path opacity="0.8" d="M103.535 50.0005H98.2021V55.3338H103.535V50.0005Z" fill="#FF9B05"/>
<path d="M111.203 50.0005H105.87V55.3338H111.203V50.0005Z" fill="#FF9B05"/>
<path opacity="0.4" d="M95.8704 83.6665H90.5371V88.9998H95.8704V83.6665Z" fill="#FF9B05"/>
<path opacity="0.8" d="M103.535 83.6665H98.2021V88.9998H103.535V83.6665Z" fill="#FF9B05"/>
<path d="M111.203 83.6665H105.87V88.9998H111.203V83.6665Z" fill="#FF9B05"/>
<path opacity="0.4" d="M95.8704 117.333H90.5371V122.666H95.8704V117.333Z" fill="#FF9B05"/>
<path opacity="0.8" d="M103.535 117.333H98.2021V122.666H103.535V117.333Z" fill="#FF9B05"/>
<path d="M111.203 117.333H105.87V122.666H111.203V117.333Z" fill="#FF9B05"/>
<path d="M105.536 205.667C120.08 205.667 131.87 193.877 131.87 179.333C131.87 164.79 120.08 153 105.536 153C90.993 153 79.2031 164.79 79.2031 179.333C79.2031 193.877 90.993 205.667 105.536 205.667Z" fill="#FFB23F"/>
<path d="M101.536 200H93.5361V214.334H101.536V200Z" fill="#FFBC53"/>
<path d="M117.536 200H109.536V214.334H117.536V200Z" fill="#FFBC53"/>
<path d="M100.203 217C103.885 217 106.869 215.881 106.869 214.5C106.869 213.12 103.885 212 100.203 212C96.5209 212 93.5361 213.12 93.5361 214.5C93.5361 215.881 96.5209 217 100.203 217Z" fill="#FFBC53"/>
<path d="M116.203 216.667C119.885 216.667 122.869 215.547 122.869 214.167C122.869 212.786 119.885 211.667 116.203 211.667C112.521 211.667 109.536 212.786 109.536 214.167C109.536 215.547 112.521 216.667 116.203 216.667Z" fill="#FFBC53"/>
<path d="M106.203 181.667C111.174 181.667 115.203 177.637 115.203 172.667C115.203 167.696 111.174 163.667 106.203 163.667C101.233 163.667 97.2031 167.696 97.2031 172.667C97.2031 177.637 101.233 181.667 106.203 181.667Z" fill="white"/>
<path d="M106.203 175.667C107.86 175.667 109.203 174.323 109.203 172.667C109.203 171.01 107.86 169.667 106.203 169.667C104.546 169.667 103.203 171.01 103.203 172.667C103.203 174.323 104.546 175.667 106.203 175.667Z" fill="#FFBF60"/>
<path d="M79.9909 154.844C77.8646 145.321 84.6615 135.699 95.1722 133.352C105.683 131.005 115.927 136.822 118.054 146.345C120.18 155.867 113.214 159.379 102.703 161.726C92.1926 164.073 82.1172 164.366 79.9909 154.844Z" fill="#FFCC80"/>
<path d="M130.234 174.081C136.92 171.22 141.611 167.199 140.712 165.1C139.814 163.002 133.667 163.62 126.982 166.481C120.296 169.343 115.605 173.363 116.503 175.462C117.402 177.561 123.549 176.943 130.234 174.081Z" fill="#FFBC53"/>
<path d="M80.9013 191.748C87.5865 188.887 92.2777 184.866 91.3795 182.767C90.4812 180.668 84.3337 181.287 77.6485 184.148C70.9633 187.009 66.2721 191.03 67.1704 193.129C68.0686 195.227 74.2162 194.609 80.9013 191.748Z" fill="#FFBC53"/>
<path d="M120.87 187.001C120.87 189.578 114.234 194.667 106.87 194.667C99.5066 194.667 92.5371 189.911 92.5371 187.334C92.5371 184.757 99.5066 185.334 106.87 185.334C114.234 185.334 120.87 184.423 120.87 187.001Z" fill="white"/>
<path opacity="0.1" d="M344.291 218.826C341.171 216.659 338.302 215.963 336.032 215.883C339.142 214.435 347.377 211.883 361.255 216.343L361.256 216.344C362.329 216.681 363.289 217.309 364.026 218.159C364.603 218.834 365.026 219.649 364.865 220.498C361.201 221.893 357.746 222.636 354.374 222.458C350.98 222.279 347.66 221.166 344.291 218.826L344.291 218.826Z" fill="#FFC164" stroke="black" stroke-width="0.333333"/>
<path d="M290.451 105.918C287.259 101.677 282.633 99 277.485 99C272.336 99 267.711 101.677 264.519 105.918C265.224 107.649 266.268 109.222 267.59 110.544C269.223 112.176 271.235 113.379 273.446 114.046C275.657 114.712 277.998 114.821 280.261 114.363C282.525 113.905 284.64 112.895 286.418 111.421C288.195 109.948 289.581 108.057 290.451 105.918Z" fill="#FF9B05"/>
<path d="M262.833 108.401C262.605 108.304 262.39 108.181 262.189 108.036C261.886 107.788 261.644 107.474 261.48 107.118C261.689 106.688 261.777 106.209 261.734 105.733C261.691 105.257 261.519 104.802 261.237 104.416C260.954 104.031 260.572 103.73 260.13 103.546C259.689 103.362 259.206 103.302 258.734 103.372C258.261 103.442 257.816 103.64 257.448 103.944C257.079 104.248 256.8 104.648 256.642 105.099C256.484 105.55 256.451 106.035 256.549 106.503C256.646 106.971 256.869 107.404 257.194 107.754C257.378 107.949 257.587 108.117 257.816 108.255C258.114 108.427 258.356 108.681 258.514 108.986C258.813 109.59 259.226 110.132 259.728 110.581C260.244 111.023 260.801 111.415 261.392 111.751C260.579 114.052 260.118 116.464 260.024 118.903C259.079 118.919 258.141 119.071 257.238 119.353C256.776 119.497 256.34 119.714 255.947 119.996C255.842 119.984 255.736 119.976 255.629 119.975C255.149 119.975 254.679 120.106 254.268 120.354C253.858 120.603 253.523 120.959 253.3 121.384C253.078 121.809 252.975 122.286 253.005 122.765C253.034 123.244 253.194 123.706 253.468 124.1C253.741 124.495 254.117 124.807 254.554 125.003C254.992 125.199 255.476 125.272 255.952 125.213C256.428 125.154 256.879 124.966 257.256 124.669C257.633 124.372 257.921 123.978 258.09 123.529C258.194 123.239 258.375 122.984 258.615 122.79C258.854 122.597 259.142 122.473 259.447 122.432C259.671 122.405 259.897 122.39 260.123 122.388C260.437 125.829 261.505 129.158 263.25 132.14C261.699 133.343 260.745 134.656 260.343 136.111C260.267 136.153 260.198 136.203 260.134 136.261C260.024 136.347 259.921 136.443 259.827 136.546C259.514 136.891 259.298 137.313 259.201 137.768C259.104 138.224 259.131 138.697 259.277 139.139C259.424 139.581 259.685 139.976 260.035 140.284C260.385 140.591 260.81 140.8 261.267 140.89C261.724 140.979 262.197 140.945 262.636 140.791C263.076 140.637 263.467 140.369 263.768 140.015C264.07 139.66 264.273 139.232 264.354 138.773C264.436 138.315 264.394 137.843 264.233 137.406C264.114 137.088 264.091 136.743 264.167 136.412C264.243 136.082 264.415 135.781 264.661 135.548C264.837 135.384 265.027 135.208 265.283 135.014C268.248 138.477 271.777 140.697 276.183 140.96V117.466C270.358 117.148 265.283 113.356 262.833 108.401ZM299.337 120C299.23 120.002 299.124 120.009 299.019 120.022C298.622 119.746 298.187 119.529 297.728 119.379C296.826 119.095 295.887 118.944 294.942 118.929C294.84 116.492 294.379 114.083 293.574 111.78C294.165 111.444 294.722 111.052 295.238 110.61C295.757 110.135 296.183 109.569 296.496 108.939C296.642 108.665 296.868 108.442 297.143 108.299C297.589 108.048 297.952 107.673 298.187 107.218C298.423 106.764 298.52 106.251 298.468 105.741C298.416 105.232 298.216 104.75 297.892 104.353C297.569 103.956 297.137 103.662 296.65 103.508C296.162 103.353 295.639 103.344 295.147 103.483C294.654 103.621 294.213 103.9 293.876 104.286C293.54 104.672 293.324 105.148 293.255 105.655C293.186 106.162 293.266 106.678 293.486 107.14C293.325 107.497 293.082 107.812 292.777 108.058C292.572 108.227 292.357 108.385 292.133 108.529C289.683 113.48 284.612 117.166 278.794 117.484V141C283.182 140.737 286.732 138.506 289.694 135.054C289.925 135.237 290.118 135.402 290.283 135.555C290.54 135.793 290.72 136.102 290.802 136.442C290.884 136.782 290.864 137.139 290.744 137.468C290.584 137.904 290.542 138.376 290.624 138.833C290.706 139.291 290.908 139.719 291.209 140.073C291.51 140.427 291.9 140.695 292.339 140.849C292.778 141.003 293.25 141.037 293.706 140.949C294.163 140.861 294.588 140.654 294.937 140.347C295.287 140.041 295.55 139.648 295.698 139.207C295.846 138.766 295.874 138.294 295.78 137.839C295.685 137.384 295.472 136.962 295.161 136.616C295.067 136.512 294.964 136.417 294.854 136.331C294.733 136.236 294.645 136.181 294.645 136.181C294.243 134.718 293.292 133.413 291.72 132.21C293.465 129.228 294.532 125.898 294.846 122.457C295.063 122.46 295.279 122.475 295.494 122.501C295.805 122.542 296.1 122.665 296.347 122.857C296.595 123.05 296.786 123.306 296.902 123.598C297.12 124.155 297.522 124.62 298.04 124.917C298.559 125.214 299.163 125.326 299.754 125.233C300.344 125.14 300.885 124.848 301.287 124.406C301.69 123.964 301.929 123.398 301.966 122.801C301.984 122.443 301.93 122.085 301.806 121.748C301.683 121.411 301.493 121.103 301.247 120.841C301.002 120.58 300.706 120.37 300.378 120.226C300.05 120.081 299.695 120.005 299.337 120Z" fill="#FF9B05"/>
</g>
<defs>
<clipPath id="clip0_775_3">
<rect width="373.203" height="233" fill="white"/>
</clipPath>
</defs>
</svg>
