<svg width="314" height="101" viewBox="0 0 314 101" fill="none" xmlns="http://www.w3.org/2000/svg">
<g clip-path="url(#clip0_582_148)">
<path d="M304.659 90.4717H293.15C292.891 90.4711 292.634 90.5272 292.399 90.6362C292.163 90.7451 291.954 90.9042 291.786 91.1024C291.362 91.0244 290.925 91.0482 290.511 91.1718C290.098 91.2954 289.719 91.5153 289.407 91.8134C289.095 92.1116 288.858 92.4795 288.716 92.887C288.574 93.2944 288.53 93.7298 288.589 94.1574C288.647 94.585 288.807 94.9926 289.053 95.3468C289.3 95.7009 289.627 95.9915 290.008 96.1947C290.389 96.3979 290.812 96.5079 291.244 96.5157C291.675 96.5234 292.102 96.4288 292.49 96.2394L293.445 99.3412C293.558 99.7088 293.786 100.03 294.095 100.259C294.405 100.487 294.779 100.611 295.164 100.611H302.646C303.031 100.611 303.405 100.487 303.715 100.259C304.024 100.03 304.252 99.7088 304.365 99.3412L306.378 92.7989C306.461 92.5299 306.479 92.2452 306.432 91.9678C306.385 91.6904 306.273 91.428 306.106 91.2016C305.939 90.9753 305.721 90.7913 305.469 90.6645C305.218 90.5377 304.941 90.4717 304.659 90.4717ZM291.301 95.7362C290.783 95.7362 290.288 95.5307 289.922 95.1651C289.556 94.7994 289.351 94.3035 289.351 93.7864C289.351 93.2692 289.556 92.7733 289.922 92.4076C290.288 92.042 290.783 91.8365 291.301 91.8365C291.336 91.8365 291.369 91.8452 291.405 91.847C291.327 92.1609 291.336 92.49 291.432 92.7989L292.255 95.4758C291.965 95.6443 291.636 95.7341 291.301 95.7362Z" fill="#FEDAA3"/>
<path d="M24.2774 82.2813H12.7686C12.509 82.2807 12.2524 82.3368 12.0167 82.4457C11.7811 82.5547 11.5721 82.7138 11.4043 82.912C10.9798 82.834 10.5429 82.8577 10.1294 82.9813C9.71585 83.1049 9.33753 83.3248 9.02548 83.623C8.71342 83.9211 8.47653 84.2891 8.33423 84.6965C8.19194 85.104 8.14831 85.5394 8.20693 85.967C8.26554 86.3946 8.42472 86.8022 8.67141 87.1563C8.9181 87.5105 9.24526 87.8011 9.62603 88.0043C10.0068 88.2075 10.4303 88.3175 10.8619 88.3253C11.2934 88.333 11.7206 88.2383 12.1085 88.049L13.453 99.34C13.566 99.7076 13.794 100.029 14.1034 100.258C14.4127 100.486 14.7872 100.609 15.1718 100.609H22.6544C23.0389 100.609 23.4134 100.486 23.7227 100.258C24.032 100.029 24.26 99.7075 24.373 99.34L25.9963 84.6084C26.079 84.3395 26.0975 84.0548 26.0502 83.7774C26.0029 83.5 25.8911 83.2376 25.724 83.0112C25.5568 82.7849 25.3388 82.6009 25.0876 82.4741C24.8363 82.3473 24.5588 82.2813 24.2774 82.2813ZM10.9188 87.5457C10.4017 87.5457 9.90571 87.3403 9.54005 86.9746C9.17439 86.609 8.96897 86.113 8.96897 85.5959C8.96897 85.0788 9.17439 84.5829 9.54005 84.2172C9.90571 83.8515 10.4017 83.6461 10.9188 83.6461C10.9544 83.6461 10.9875 83.6547 11.0227 83.6566C10.9452 83.9705 10.9546 84.2995 11.05 84.6084L11.8735 87.2854C11.5834 87.4539 11.2543 87.5436 10.9188 87.5457Z" fill="#FFE7C4"/>
<path d="M160.241 72.9234C160.241 72.3064 160.058 71.7032 159.716 71.1902C159.373 70.6772 158.886 70.2773 158.316 70.0412C157.745 69.8051 157.118 69.7433 156.513 69.8637C155.908 69.984 155.352 70.2811 154.916 70.7174C154.479 71.1537 154.182 71.7096 154.062 72.3148C153.942 72.9199 154.003 73.5472 154.239 74.1173C154.476 74.6873 154.875 75.1745 155.388 75.5173C155.901 75.8601 156.505 76.0431 157.122 76.0431C157.161 76.0431 157.198 76.0387 157.237 76.0373C158.008 78.5448 158.42 81.1489 158.461 83.7721C158.49 85.0798 158.416 86.3878 158.237 87.6837C158.102 88.6031 157.848 89.658 156.935 90.0876C156.255 90.4079 156.848 91.4167 157.526 91.0977C158.555 90.6133 159.056 89.5276 159.281 88.4665C159.537 87.0984 159.655 85.708 159.633 84.3163C159.645 81.4232 159.222 78.5447 158.379 75.7771C158.933 75.5333 159.404 75.1338 159.734 74.6271C160.065 74.1204 160.241 73.5284 160.241 72.9234Z" fill="#FFCCCC"/>
<path d="M159.287 91.7216C159.287 91.7216 155.103 81.425 167.652 73.7026L159.287 91.7216Z" fill="#E0FFC2"/>
<path d="M159.063 91.5342C159.063 91.5342 157.787 84.1952 147.91 84.2582L159.063 91.5342Z" fill="#E0FFC2"/>
<path d="M166.06 100.548H148.909C148.58 100.548 148.258 100.455 147.979 100.281C147.7 100.106 147.476 99.8568 147.332 99.561L143.598 91.8854C143.468 91.6179 143.408 91.3218 143.423 91.0248C143.439 90.7279 143.53 90.4398 143.688 90.1876C143.846 89.9355 144.065 89.7276 144.325 89.5835C144.585 89.4394 144.878 89.3638 145.175 89.3638H169.794C170.091 89.3638 170.384 89.4394 170.644 89.5835C170.904 89.7276 171.123 89.9355 171.281 90.1876C171.439 90.4398 171.53 90.7278 171.545 91.0248C171.561 91.3218 171.501 91.6179 171.371 91.8854L167.637 99.561C167.493 99.8568 167.269 100.106 166.99 100.281C166.711 100.455 166.389 100.548 166.06 100.548Z" fill="#FFE7C4"/>
<path d="M312.749 101H0.389961C0.286537 101 0.187349 100.959 0.114217 100.886C0.0410848 100.813 0 100.714 0 100.61C0 100.507 0.0410848 100.408 0.114217 100.334C0.187349 100.261 0.286537 100.22 0.389961 100.22H312.749C312.852 100.22 312.952 100.261 313.025 100.334C313.098 100.408 313.139 100.507 313.139 100.61C313.139 100.714 313.098 100.813 313.025 100.886C312.952 100.959 312.852 101 312.749 101Z" fill="#3F3D56"/>
<path d="M65.1516 78.3531L57.5727 49.6968L56.6953 46.3887L57.5181 45.6248L71.6433 38.627L91.8277 39.1296L103.677 45.213L103.741 49.6968L104.326 90.0933L106.69 100.009H63.336L66.7021 84.217L65.1516 78.3531Z" fill="#FF9B05"/>
<path d="M115.009 100.008H103.71L100.591 77.4839L101.407 49.696L101.52 45.9156L103.677 45.2119C105.302 46.3991 106.646 47.9302 107.612 49.696C108.999 52.1086 110.15 55.5661 109.864 60.2147C109.864 60.2147 110.12 65.704 109.876 69.3595C109.708 71.8575 112.624 87.6462 115.009 100.008Z" fill="#FF9B05"/>
<path d="M65.1915 78.0674L65.152 78.3538L62.1543 100.01H49.1621C50.2039 87.7393 51.4285 72.3984 51.264 69.94C51.0204 66.2876 51.2762 60.7952 51.2762 60.7952C50.9655 55.7597 52.3455 52.1286 53.8777 49.6977C54.6486 48.4619 55.5981 47.3471 56.6955 46.3894C56.9389 46.1758 57.1953 45.9774 57.4632 45.7954L59.6199 46.4961L60.1835 49.6977L65.1915 78.0674Z" fill="#FF9B05"/>
<path d="M66.6905 19.7973C66.6905 22.5646 67.5111 25.2697 69.0485 27.5707C70.5859 29.8716 72.7711 31.6649 75.3277 32.7239C77.8843 33.7829 80.6976 34.06 83.4117 33.5201C86.1258 32.9802 88.6189 31.6477 90.5756 29.6909C92.5324 27.7341 93.865 25.2411 94.4049 22.527C94.9447 19.8129 94.6676 16.9996 93.6087 14.443C92.5497 11.8863 90.7563 9.70114 88.4554 8.16372C86.1545 6.6263 83.4494 5.80571 80.6821 5.80571C76.9805 5.79646 73.4269 7.25803 70.803 9.8689C68.179 12.4798 66.6997 16.026 66.6905 19.7276C66.6904 19.7508 66.6904 19.7741 66.6905 19.7973Z" fill="#FFE7C4"/>
<path d="M125.373 97.7773C125.373 98.5759 125.056 99.3418 124.491 99.9065C123.927 100.471 123.161 100.788 122.362 100.788H41.813C41.0144 100.788 40.2484 100.471 39.6837 99.9065C39.119 99.3418 38.8018 98.5759 38.8018 97.7772C38.8018 96.9786 39.119 96.2127 39.6837 95.648C40.2484 95.0833 41.0144 94.766 41.813 94.766H42.707C42.6558 94.5867 42.6292 94.4012 42.6279 94.2147V53.0918C42.6279 52.3982 42.9034 51.733 43.3938 51.2425C43.8843 50.7521 44.5495 50.4766 45.2431 50.4766H118.932C119.626 50.4766 120.291 50.7521 120.781 51.2425C121.272 51.7329 121.547 52.3981 121.547 53.0917V94.2147C121.547 94.4013 121.521 94.587 121.468 94.766H122.362C122.757 94.766 123.149 94.8439 123.514 94.9952C123.88 95.1466 124.212 95.3684 124.491 95.648C124.771 95.9276 124.993 96.2596 125.144 96.6249C125.295 96.9902 125.373 97.3818 125.373 97.7773Z" fill="#F3C689"/>
<path d="M83.6488 73.9637C82.7282 73.9637 81.8283 73.6907 81.0628 73.1792C80.2974 72.6678 79.7008 71.9408 79.3485 71.0903C78.9962 70.2398 78.904 69.3039 79.0836 68.4009C79.2632 67.498 79.7065 66.6686 80.3574 66.0177C81.0084 65.3667 81.8378 64.9234 82.7407 64.7437C83.6436 64.5641 84.5795 64.6563 85.43 65.0086C86.2806 65.3609 87.0075 65.9575 87.519 66.7229C88.0305 67.4884 88.3035 68.3883 88.3035 69.3089C88.3021 70.543 87.8113 71.7261 86.9387 72.5988C86.0661 73.4714 84.8829 73.9623 83.6488 73.9637ZM83.6488 65.4342C82.8825 65.4342 82.1333 65.6615 81.4961 66.0872C80.8589 66.513 80.3623 67.1182 80.069 67.8262C79.7757 68.5342 79.699 69.3133 79.8485 70.065C79.998 70.8166 80.3671 71.507 80.909 72.0489C81.4509 72.5908 82.1413 72.9598 82.893 73.1093C83.6446 73.2588 84.4237 73.1821 85.1317 72.8888C85.8397 72.5955 86.4449 72.0988 86.8706 71.4616C87.2964 70.8244 87.5236 70.0752 87.5236 69.3089C87.5224 68.2816 87.1138 67.2968 86.3874 66.5704C85.661 65.844 84.6761 65.4354 83.6488 65.4342Z" fill="white"/>
<path d="M82.087 72.0149C84.4424 72.0149 86.3518 70.1055 86.3518 67.7501C86.3518 65.3947 84.4424 63.4854 82.087 63.4854C79.7317 63.4854 77.8223 65.3947 77.8223 67.7501C77.8223 70.1055 79.7317 72.0149 82.087 72.0149Z" fill="white"/>
<path d="M212.918 31.8525V23.5927C212.918 18.6283 214.89 13.8673 218.4 10.3569C221.911 6.84659 226.672 4.87451 231.636 4.87451C236.6 4.87451 241.362 6.84659 244.872 10.3569C248.382 13.8673 250.354 18.6283 250.354 23.5927V31.8525C250.353 32.971 249.908 34.0434 249.117 34.8343C248.326 35.6253 247.254 36.0701 246.135 36.0714H220.834L218.767 31.6792V36.0714H217.137C216.018 36.0701 214.946 35.6253 214.155 34.8343C213.364 34.0434 212.919 32.971 212.918 31.8525Z" fill="#2F2E41"/>
<path d="M245.288 58.2904L246.094 67.0266L246.461 70.9959L247.045 77.3162L247.119 78.1313L247.595 83.2643L247.607 83.3204C247.906 84.2807 248.508 85.1186 249.322 85.7098C250.136 86.3009 251.119 86.6137 252.125 86.6016L273.839 86.2265L279.967 86.1202C280.085 86.2974 280.2 86.4569 280.315 86.5987C280.854 87.2523 281.523 87.7854 282.281 88.1634C283.038 88.5414 283.867 88.756 284.713 88.793C285.563 88.8321 286.412 88.6892 287.202 88.3739C287.993 88.0587 288.707 87.5783 289.297 86.9649C289.415 86.8438 289.53 86.7168 289.636 86.5839C290.439 85.5961 290.909 84.3799 290.979 83.109C291.049 81.8381 290.715 80.5775 290.026 79.5076C289.567 78.7912 288.96 78.1813 288.246 77.7188C287.532 77.2563 286.727 76.9518 285.885 76.8259C285.049 76.6976 284.195 76.7467 283.379 76.9701C282.563 77.1935 281.803 77.5861 281.148 78.1224C280.94 78.2936 280.746 78.4802 280.566 78.6806L273.839 77.7001L256.895 75.234L256.171 65.4583C256.168 65.414 256.165 65.3697 256.162 65.3224L255.578 57.4339C255.48 56.1213 254.885 54.8954 253.914 54.0067C252.943 53.118 251.669 52.6336 250.353 52.6524C249.92 52.6568 249.489 52.7173 249.071 52.8325C248.603 52.9593 248.156 53.1522 247.742 53.4055C246.916 53.9076 246.248 54.6319 245.814 55.4957C245.38 56.3595 245.198 57.3279 245.288 58.2904Z" fill="#FFE7C4"/>
<path d="M232.394 36.525C239.172 36.525 244.667 31.0303 244.667 24.2522C244.667 17.4742 239.172 11.9795 232.394 11.9795C225.616 11.9795 220.121 17.4742 220.121 24.2522C220.121 31.0303 225.616 36.525 232.394 36.525Z" fill="#FFE7C4"/>
<path d="M248.759 44.7062L250.99 43.9624C250.99 43.9624 255.453 45.8219 255.453 49.169C255.453 52.5161 256.197 65.9046 256.197 65.9046L246.155 67.0203L248.759 44.7062Z" fill="#FF9B05"/>
<path d="M201.285 100.399H210.134L213.161 75.0327L214.257 65.8713L214.407 64.6073L215.216 57.8263C215.26 56.9748 215.07 56.1276 214.667 55.3763C214.264 54.625 213.663 53.998 212.93 53.5633C212.197 53.1285 211.358 52.9023 210.506 52.9093C209.653 52.9163 208.819 53.1562 208.093 53.6029C207.91 53.7155 207.735 53.8409 207.57 53.978C207.062 54.3956 206.649 54.9159 206.356 55.5049C206.064 56.0939 205.9 56.7381 205.875 57.3951L205.077 64.8524L201.285 100.399Z" fill="#9E616A"/>
<path d="M214.558 65.9046L204.517 64.7889C204.517 64.7889 205.26 51.4004 205.26 48.0533C205.26 44.7062 209.723 42.8467 209.723 42.8467L211.955 43.5905L214.558 65.9046Z" fill="#FF9B05"/>
<path d="M211.302 100.4H253.278C251.948 95.3165 250.133 90.3725 247.859 85.6359C247.49 84.8828 247.271 84.4811 247.271 84.4811C247.271 84.4811 229.421 84.1297 218.263 88.5923C217.551 88.8995 216.913 89.3545 216.39 89.9272C214.459 91.9237 212.77 95.6715 211.302 100.4Z" fill="#2F2E41"/>
<path d="M220.121 40.6154C220.121 40.6154 219.767 40.4253 240.947 41.1968L249.811 43.6381L250.989 43.9626C250.989 43.9626 249.873 66.2767 246.898 70.3676C243.923 74.4585 244.667 76.6899 245.411 77.0618C246.154 77.4337 248.014 76.6899 246.898 78.5494C245.782 80.4089 244.295 79.2932 245.782 80.4089C247.27 81.5246 248.014 85.6155 248.014 85.6155L215.287 90.0784C215.287 90.0784 214.171 75.5742 211.196 68.1362C208.22 60.6981 207.477 57.7229 207.477 57.7229L209.708 42.8469L220.121 40.6154Z" fill="#FF9B05"/>
<path d="M219.157 17.3535C219.157 14.1473 220.431 11.0725 222.698 8.80537C224.965 6.53828 228.04 5.26465 231.246 5.26465C234.452 5.26465 237.527 6.53828 239.794 8.80537C242.061 11.0725 243.335 14.1473 243.335 17.3535V22.8129H219.157V17.3535Z" fill="#2F2E41"/>
<path d="M272.387 97.3315V98.4095C272.387 99.0408 272.136 99.6462 271.69 100.093C271.244 100.539 270.638 100.79 270.007 100.79H190.836C190.204 100.79 189.599 100.539 189.152 100.093C188.706 99.6462 188.455 99.0408 188.455 98.4095V97.3315C188.455 96.7002 188.706 96.0948 189.152 95.6484C189.599 95.202 190.204 94.9512 190.836 94.9511H192.241C192.192 94.7772 192.166 94.5973 192.165 94.4165V54.0082C192.165 53.4788 192.375 52.9712 192.75 52.5969C193.124 52.2225 193.632 52.0121 194.161 52.0117H266.682C267.211 52.0121 267.719 52.2225 268.093 52.5969C268.467 52.9712 268.678 53.4788 268.678 54.0082V94.4165C268.678 94.5974 268.652 94.7775 268.601 94.9511H270.007C270.638 94.9512 271.244 95.202 271.69 95.6484C272.136 96.0948 272.387 96.7002 272.387 97.3315Z" fill="#F3C689"/>
<path d="M231.981 74.8414C231.086 74.8414 230.211 74.5761 229.467 74.0789C228.723 73.5817 228.143 72.875 227.8 72.0483C227.458 71.2215 227.368 70.3117 227.543 69.434C227.718 68.5563 228.149 67.7501 228.781 67.1173C229.414 66.4845 230.22 66.0535 231.098 65.8789C231.976 65.7043 232.886 65.794 233.712 66.1364C234.539 66.4789 235.246 67.0588 235.743 67.8029C236.24 68.547 236.505 69.4218 236.505 70.3167C236.504 71.5163 236.027 72.6664 235.179 73.5147C234.33 74.363 233.18 74.8401 231.981 74.8414ZM231.981 66.5719C231.24 66.5719 230.516 66.7915 229.9 67.203C229.284 67.6145 228.804 68.1994 228.521 68.8836C228.238 69.5679 228.163 70.3209 228.308 71.0473C228.452 71.7737 228.809 72.441 229.333 72.9647C229.857 73.4884 230.524 73.8451 231.25 73.9896C231.977 74.1341 232.73 74.0599 233.414 73.7765C234.098 73.493 234.683 73.0131 235.094 72.3972C235.506 71.7814 235.726 71.0574 235.726 70.3167C235.724 69.3239 235.33 68.372 234.627 67.67C233.925 66.9679 232.974 66.5731 231.981 66.5719Z" fill="white"/>
<path d="M230.422 72.8911C232.705 72.8911 234.557 71.0399 234.557 68.7563C234.557 66.4728 232.705 64.6216 230.422 64.6216C228.138 64.6216 226.287 66.4728 226.287 68.7563C226.287 71.0399 228.138 72.8911 230.422 72.8911Z" fill="white"/>
<path d="M96.5322 8.17448C95.4043 7.30355 94.4874 6.18937 93.8498 4.91494C93.6222 4.43054 93.3082 3.99167 92.9233 3.61981L90.2777 5.65444L91.8945 2.83843C87.7537 0.335435 79.6677 1.66481 79.6677 1.66481C71.2561 -2.81432 68.1674 2.7769 67.0906 6.32274C66.6641 7.60593 65.9119 8.75649 64.9076 9.66195C62.8327 11.6404 66.1001 15.4887 66.1001 15.4887V15.7607L66.8801 21.0579C66.8801 21.0579 67.66 17.5483 69.7181 15.082C71.0157 13.5271 73.1277 12.6026 74.1086 12.6217C86.7681 12.8687 89.1648 13.37 89.1648 13.37C89.1648 13.37 91.3081 14.5214 92.2546 15.0051C95.3133 16.5681 94.5673 22.2278 94.5673 22.2278L96.853 12.1828C97.3806 9.74782 97.0876 8.63063 96.5322 8.17448Z" fill="#2F2E41"/>
</g>
<defs>
<clipPath id="clip0_582_148">
<rect width="313.139" height="101" fill="white"/>
</clipPath>
</defs>
</svg>
